<?xml version="1.0" encoding="UTF-8"?>
<svg width="130px" height="41px" viewBox="0 0 130 41" version="1.1" xmlns="http://www.w3.org/2000/svg" xmlns:xlink="http://www.w3.org/1999/xlink">
    <!-- Generator: Sketch 52.5 (67469) - http://www.bohemiancoding.com/sketch -->
    <title>logo</title>
    <desc>Created with Sketch.</desc>
    <g id="weakow.com" stroke="none" stroke-width="1" fill="none" fill-rule="evenodd">
        <g id="Desktop-HD" transform="translate(-174.000000, -30.000000)" fill="#243147">
            <g id="logo" transform="translate(174.000000, 30.000000)">
                <path d="M40.232,18.736 L30.536,40 L29.144,40 L26.744,25.696 L20.264,40 L18.824,40 L16.328,24.928 C16.0719987,23.4239925 15.8320011,22.4640021 15.608,22.048 C15.2559982,21.3439965 14.6160046,20.992 13.688,20.992 C13.3999986,20.9599998 13.2879997,20.7680018 13.352,20.416 C13.3840002,20.0959984 13.5439986,19.9200002 13.832,19.888 L22.088,18.112 L23.384,29.152 L26.264,23.008 C25.9439984,21.6639933 25.1760061,20.992 23.96,20.992 C23.6719986,20.9599998 23.5599997,20.7680018 23.624,20.416 C23.6880003,20.0959984 23.8639986,19.9200002 24.152,19.888 L32.456,18.112 L33.704,29.152 L38.552,18.736 L40.232,18.736 Z M52.952,26.704 L42.248,29.44 C42.1519995,30.048003 42.104,30.6719968 42.104,31.312 C42.104,33.0400086 42.4239968,34.4479946 43.064,35.536 C43.8000037,36.8160064 44.8239934,37.456 46.136,37.456 C47.7040078,37.456 49.3519914,36.5920086 51.08,34.864 L50.552,37.936 C48.8239914,39.6320085 46.6160134,40.48 43.928,40.48 C41.6559886,40.48 39.8800064,39.7920069 38.6,38.416 C37.3199936,37.0399931 36.68,35.0720128 36.68,32.512 C36.68,31.6159955 36.7599992,30.672005 36.92,29.68 C37.4960029,26.0639819 38.7439904,23.2480101 40.664,21.232 C42.5200093,19.3119904 44.7759867,18.352 47.432,18.352 C49.4160099,18.352 50.9199949,19.247991 51.944,21.04 C52.8080043,22.6080078 53.144001,24.495989 52.952,26.704 Z M49.544,25.84 C49.6080003,25.1999968 49.64,24.6240026 49.64,24.112 C49.64,21.2959859 48.8240082,19.888 47.192,19.888 C45.0799894,19.888 43.528005,22.4639742 42.536,27.616 L49.544,25.84 Z M71.064,18.112 L67.56,40 L62.232,40 L62.472,38.56 C61.9919976,39.2640035 61.5600019,39.7439987 61.176,40 C60.6319973,40.3200016 59.864005,40.48 58.872,40.48 C56.8559899,40.48 55.2880056,39.6480083 54.168,37.984 C53.175995,36.4799925 52.68,34.5120122 52.68,32.08 C52.68,31.1839955 52.7599992,30.2720046 52.92,29.344 C53.3680022,26.3999853 54.4639913,23.9120102 56.208,21.88 C57.9520087,19.8479898 59.9439888,18.832 62.184,18.832 C63.784008,18.832 64.7919979,19.631992 65.208,21.232 L65.496,19.312 L71.064,18.112 Z M63.912,29.344 C64.2640018,27.2319894 64.44,25.6160056 64.44,24.496 C64.44,22.3199891 63.944005,21.232 62.952,21.232 C60.6479885,21.232 59.0640043,23.935973 58.2,29.344 C57.9439987,30.9120078 57.816,32.2719942 57.816,33.424 C57.816,36.4000149 58.6479917,37.888 60.312,37.888 C61.8160075,37.888 62.9359963,35.6000229 63.672,31.024 L63.912,29.344 Z M88.856,18.736 L82.088,24.736 L87.032,40 L80.84,40 L76.664,27.136 L86.024,18.736 L88.856,18.736 Z M79.688,8.32 L74.648,40 L69.32,40 L73.256,15.232 C73.3520005,14.4639962 73.4,13.8400024 73.4,13.36 C73.4,11.9199928 72.6640074,11.2 71.192,11.2 C70.9039986,11.1679998 70.7919997,10.9760018 70.856,10.624 C70.9200003,10.3039984 71.0799987,10.1280002 71.336,10.096 L79.688,8.32 Z M103.88,29.68 C103.335997,33.1360173 102.08801,35.8239904 100.136,37.744 C98.3119909,39.5680091 96.0720133,40.48 93.416,40.48 C91.1439886,40.48 89.3600065,39.7920069 88.064,38.416 C86.7679935,37.0399931 86.12,35.056013 86.12,32.464 C86.12,31.5999957 86.1999992,30.672005 86.36,29.68 C86.9360029,26.0639819 88.1999902,23.2480101 90.152,21.232 C92.0080093,19.3119904 94.2639867,18.352 96.92,18.352 C99.1600112,18.352 100.919994,19.0639929 102.2,20.488 C103.480006,21.9120071 104.12,23.9679866 104.12,26.656 C104.12,27.5840046 104.040001,28.5919946 103.88,29.68 Z M98.552,29.68 C98.9360019,27.1839875 99.128,25.3600058 99.128,24.208 C99.128,21.5199866 98.2960083,20.176 96.632,20.176 C95.1279925,20.176 93.9600042,21.2479893 93.128,23.392 C92.6479976,24.6400062 92.1680024,26.7359853 91.688,29.68 C91.3679984,31.7600104 91.208,33.2639954 91.208,34.192 C91.208,36.6560123 92.0719914,37.888 93.8,37.888 C95.3040075,37.888 96.455996,36.9760091 97.256,35.152 C97.7040022,34.0959947 98.1359979,32.272013 98.552,29.68 Z M129.848,18.736 L120.152,40 L118.76,40 L116.36,25.696 L109.88,40 L108.44,40 L105.944,24.928 C105.687999,23.4239925 105.448001,22.4640021 105.224,22.048 C104.871998,21.3439965 104.232005,20.992 103.304,20.992 C103.015999,20.9599998 102.904,20.7680018 102.968,20.416 C103,20.0959984 103.159999,19.9200002 103.448,19.888 L111.704,18.112 L113,29.152 L115.88,23.008 C115.559998,21.6639933 114.792006,20.992 113.576,20.992 C113.287999,20.9599998 113.176,20.7680018 113.24,20.416 C113.304,20.0959984 113.479999,19.9200002 113.768,19.888 L122.072,18.112 L123.32,29.152 L128.168,18.736 L129.848,18.736 Z" id="weakow"></path>
                <rect id="left" fill-rule="nonzero" x="0" y="0" width="1" height="40"></rect>
                <polygon id="bottom" fill-rule="nonzero" points="7.10542736e-15 39 17 39 17.1653748 40 7.10542736e-15 40"></polygon>
                <rect id="right" fill-rule="nonzero" x="39" y="0" width="1" height="17"></rect>
                <rect id="top" fill-rule="nonzero" x="0" y="0" width="40" height="1"></rect>
            </g>
        </g>
    </g>
</svg>